<svg xmlns="http://www.w3.org/2000/svg" width="162.22" height="128" viewBox="0 0 256 202"><path d="M146.807 120.124c-6.579.134-13.163.041-19.745.041v.261c-6.221 0-12.443.02-18.664-.005c-6.608-.026-11.741 2.925-15.739 7.951c-5.767 7.251-10.293 15.63-19.066 20.086c-.97.493-1.749 2.412-1.644 3.583c.063.716 1.909 1.516 3.078 1.855c10.408 3.021 20.979 3.46 31.578 1.324c15.01-3.023 28.543-8.95 38.294-21.337c2.235-2.84 3.772-6.342 5.1-9.747c.938-2.404-.095-4.075-3.192-4.012M23.404 101.21c-1.554-2.138-3.244-4.41-4.877-6.723c-1.284-1.819-2.494-2.23-4.345-.517c-7.783 7.204-10.568 25.45-5.326 34.58zm209.026 3.895c-3.774-.74-4.137-2.304-5.776-4.335c-8.561-10.61-14.92-20.447-26.152-31.434c-18.076-18.852-40.542-28.597-66.759-30.049c-14.225-.787-28.249.42-42.221 2.546c-6.719 1.022-11.125-1.597-14.374-6.989c-1.227-2.036-2.535-4.192-3.041-6.463c-1.868-8.385-3.493-16.827-5.044-25.278c-.561-3.056-1.429-3.768-4.27-2.514c-4.676 2.065-7.772 5.741-9.169 10.49c-1.203 4.091-2.28 8.43-2.215 12.64c.15 9.685.887 19.37 1.67 29.03c.435 5.376-.325 10.037-4.047 14.322c-4.232 4.873-7.874 10.257-11.803 15.397c-14.195 18.572-26.012 38.468-33.677 60.658c-3.897 11.278-6.889 22.696-4.94 34.835c.662 4.122.997 8.296 1.488 12.446c.59 4.992 7.435 10.99 12.461 10.906c5.769-.095 10.769-2.496 15.131-5.904c7.702-6.017 16.207-10.546 24.914-14.846c10.367-5.12 19.889-11.51 27.927-19.93c.592-.622 1.063-1.358 1.669-2.142c-4.102-.99-7.873-1.719-11.528-2.829c-3.984-1.21-4.774-4.192-2.089-7.429c.899-1.084 2.181-1.843 3.24-2.804c3.081-2.795 6.36-5.417 9.14-8.487c2.639-2.915 4.655-6.383 7.107-9.479c4.4-5.557 10.122-8.69 17.304-8.83c4.312-.085 8.629-.154 12.94-.056c3.409.077 6.134-1.018 8.815-3.215c6.566-5.38 12.164-10.767 19.196-15.496c11.152-6.235 19.518-8.905 30.241-7.828c19.258 1.935 33.629 12.13 45.269 26.887c.429.543.793 1.301.714 2.081s-1.203.405-1.203.405s-9.352-9.785-13.738-14.362c-2.411 3.354-3.666 5.651-5.657 8.09c-2.718 3.327-6.054 6.218-8.385 9.78c-3.785 5.78-2.173 14.405 2.945 17.758c.436-.67 1.155-1.299 1.257-2.016c.395-2.772.62-4.862 3.908-5.076c1.492-.097.426-1.836 3.256-1.988c.883.068.815.816 1.698.748c.714-.102 1.031-1.33 1.801-1.665c1.529-.663 3.562-.58 5.067-.519c2.79.115 4.123-1.35 4.486-3.14c.24-1.179.349-2.106.927-4.176c1.336 5.335 4.808 6.945 9.116 6.907c2.037-.018 4.132-.442 6.096-.09c4.785.304 5.632 1.377 8.328 2.402c4.157 1.578 7.934 3.481 9.369 8.401c.425-.133 1.257-.238 1.699-1.087c.441-.85.431-2.002.466-3.449c.395-16.352-7.862-27.938-23.557-32.824m-168.875 25.54c3.78-.06 4.35.806 2.76 4.1c-.355.733-.71 1.537-.773 2.332c-.504 6.38-3.639 10.944-9.174 14.102c-2.798 1.596-5.249 3.804-8.064 5.363c-1.544.855-3.948 1.77-5.175 1.133c-.661-.342-1.034-1.242-1.344-2.264c-.593-1.965-.744-4.068-.278-6.067c2.34-10.033 11.897-18.533 22.048-18.699m-22.767 34.14c.04-.852 3.968-4.232 4.963-4.072c.994.16.938.863.942 1.886s-3.932 4.548-5.827 3.37c-.442-.379-.189-1.019-.078-1.184m37.193-3.412c-4.995 4.621-10.57 8.322-15.99 11.74c-4.235 2.668-8.853 4.724-13.154 7.298c-6.549 3.92-12.979 8.038-19.447 12.094c-4.819 3.023-9.504 6.38-15.705 6.221c.097-.515.084-.879.185-.915c6.523-2.289 11.334-6.614 15.786-11.854c2.688-3.163 6.716-5.349 10.445-7.43c7.802-4.356 14.123-10.104 18.939-17.658c3.437-5.39 3.571-5.175 9.268-2.686c2.931 1.281 5.444 1.736 9.673 3.19m91.807-76.462c7.477-.155 10.901.714 16.203 1.954c4.2 1.018 7.135 3.827 8.851 6.098c-6.688-2.046-10.071-3.147-16.691-3.737c-14.228-1.699-26.718 2.743-37.671 11.693c-4.632 3.785-9.225 7.672-13.4 11.94c-2.468 2.521-2.517 3.181-8.449 2.806c5.246-8.117 10.029-16.339 14.714-24.483c15.153-26.34 53.234-21.83 66.32-6.555c.534.624 1.345 2.278 1.345 2.278s-12.384-6.625-21.492-6.625c-5.486 0-6.861.405-10.252.988c-.895.154-2.391.93-2.379 2.24s1.888 1.26 2.901 1.403m79.873 47.907c-3.976-6.157-9.984-4.824-15.609-4.849c-1.676-.008-3.353.088-5.03.15c-2.831.101-5.219-.56-6.454-3.474c-.318-.749-1.115-1.908-1.777-2.026c-.646.177-.861.598-.976.843c-2.553 5.43-7.506 6.288-12.648 6.397c-2.974.063-5.41.475-6.873 3.428c-.283.573-1.73 1.231-1.98 1.03c-.634-.51-1.412-1.665-1.213-2.246c.759-2.212 1.564-4.533 2.931-6.388c3.467-4.705 7.247-9.18 11.223-14.148c1.874 1.975 3.93 4.193 6.043 6.354c1.669 1.707 3.229 3.617 5.188 4.904c1.033.68 3.267.783 4.122.1c.738-.589.83-2.95.257-4.017c-1.17-2.18-3.019-3.989-4.511-6.007c-1.114-1.506-2.106-3.1-3.432-5.072c13.391-2.39 33.279 13.87 30.739 25.021"/></svg>