<svg xmlns="http://www.w3.org/2000/svg" width="385.51" height="128" viewBox="0 0 512 170"><path d="M95.217 35.541h.235c-27.905 0-46.665 16.074-46.665 47.703v19.278a26 26 0 0 1 9.097-2.12a17.7 17.7 0 0 1 9.145 2.12V83.244c0-20.364 11.266-31.11 28.282-31.11s28.282 10.746 28.282 31.11v49.305h18.242V83.244c0-31.63-18.855-47.703-46.618-47.703m56.705 49.824h-.188c0-28.942 20.881-49.824 50.907-49.824c30.027 0 50.39 21.023 50.39 49.824v6.457h-82.018c2.133 15.633 15.87 27.036 31.628 26.256c12.35 0 20.93-3.724 26.303-11.785h19.986c-7.495 17.677-24.653 28.942-46.619 28.942c-29.507 0-50.389-20.881-50.389-49.87m82.537-9.428c-3.446-14.478-16.77-24.406-31.629-23.568c-14.729-.81-27.877 9.166-31.063 23.568zm28.612 9.428c0-28.336 20.396-49.144 49.65-49.808l1.446-.016a49.02 49.02 0 0 1 50.955 49.824c0 28.989-20.929 49.87-50.955 49.87s-51.096-20.881-51.096-49.87m83.055 0a30.922 30.922 0 0 0-32.666-32.666a31.487 31.487 0 0 0-32.713 32.666a30.97 30.97 0 0 0 32.713 32.713c19.845.565 32.666-13.387 32.666-32.713m159.463-43.413v90.03c0 23.57-9.144 35.4-32.713 35.4h-3.77v-15.507h2.168c11.784 0 16.073-5.374 16.073-18.855V41.952zm-61.136-18.384a22.39 22.39 0 0 1 15.555 21.448v58.072h10.7v16.074h-10.7v22.531h-18.242v-22.531h-46.1a22.72 22.72 0 0 1-20.928-11.784a19.75 19.75 0 0 1 2.687-21.448l41.197-54.16a22.63 22.63 0 0 1 25.831-8.202m-5.986 17.3h-1.603a4.71 4.71 0 0 0-3.77 2.168L392.46 96.112a3.9 3.9 0 0 0-1.084 2.687a4.714 4.714 0 0 0 4.714 4.713h45.58V45.157c0-3.205-2.12-4.29-3.204-4.29"/><path fill="#018BFF" d="M496.445 0c-8.591 0-15.555 6.964-15.555 15.555s6.964 15.555 15.555 15.555S512 24.146 512 15.555S505.036 0 496.445 0M56.847 109.499a12.77 12.77 0 0 0-9.144 3.205l-17.158-11.219a11.4 11.4 0 0 0 .566-4.289a15.555 15.555 0 1 0-15.555 15.508a12.5 12.5 0 0 0 9.097-3.205l17.158 11.784c-.425 1.388-.6 2.84-.519 4.29c-.086 1.449.09 2.902.519 4.289l-17.158 11.831a14.47 14.47 0 0 0-9.097-3.252a15.555 15.555 0 1 0 15.555 15.555c.091-1.453-.1-2.91-.566-4.29l17.158-11.784a14.42 14.42 0 0 0 9.144 3.205a15.51 15.51 0 0 0 15.509-15.555c.054-8.68-6.831-15.817-15.509-16.073"/></svg>